<?xml version="1.0" encoding="utf-8"?>
<!-- Generator: Adobe Illustrator 19.0.0, SVG Export Plug-In . SVG Version: 6.00 Build 0)  -->
<svg version="1.1" id="Layer_1" xmlns="http://www.w3.org/2000/svg" xmlns:xlink="http://www.w3.org/1999/xlink" x="0px" y="0px"
	 viewBox="0 385 24 24" style="enable-background:new 0 385 24 24;" xml:space="preserve">
<style type="text/css">
	.st0{fill:#E0E0E1;}
	.st1{fill:#A5A6A7;}
</style>
<circle class="st0" cx="12" cy="397" r="12"/>
<path class="st1" d="M12,385c-6.6,0-12,5.4-12,12c0,3.2,1.2,6.2,3.5,8.4l0,0c2.3,2.3,5.3,3.6,8.5,3.6c3.2,0,6.3-1.3,8.5-3.6
	c2.2-2.3,3.5-5.3,3.5-8.4C24,390.4,18.6,385,12,385z M20.1,404.4c-1.1-0.6-2.6-1.2-4.3-1.8c-0.4-0.2-0.8-0.3-1.3-0.5v-1.8
	c0.5-0.3,1.4-1.1,1.5-2.9c0.4-0.2,0.6-0.7,0.6-1.4c0-0.6-0.2-1-0.5-1.3c0.2-0.8,0.7-2.1,0.4-3.3c-0.3-1.4-2.2-1.9-3.7-1.9
	c-1.3,0-3,0.4-3.6,1.5c-0.7,0-1.1,0.3-1.3,0.5c-0.6,0.8-0.2,2.4,0,3.2c-0.3,0.2-0.5,0.7-0.5,1.3c0,0.6,0.2,1.1,0.6,1.4
	c0.1,1.8,1,2.6,1.5,2.9v1.8c-0.4,0.1-0.8,0.3-1.2,0.4c-1.6,0.6-3.3,1.2-4.4,1.9C2,402.4,1,399.8,1,397c0-6.1,4.9-11,11-11
	c6.1,0,11,4.9,11,11C23,399.8,22,402.4,20.1,404.4z"/>
</svg>
