
<svg xmlns="http://www.w3.org/2000/svg" style="display: none;">
    <symbol id="icon-search" viewBox="0 0 512 512">
      <path d="m510 493l-192-192c28-32 47-75 47-120-2-100-83-181-184-181-100 0-181 81-181 181 0 101 81 182 181 182 47 0 88-17 120-47l192 192c2 2 4 2 8 2 5 0 7 0 9-2 2-2 2-11 0-15z m-489-312c0-87 73-160 160-160 88 0 160 73 160 160 0 88-72 160-160 160-87 0-160-72-160-160z"/>
    </symbol>

    <symbol id="icon-plus" viewBox="0 0 512 512">
      <path d="m256 11c-135 0-245 110-245 245 0 135 110 245 245 245 135 0 245-110 245-245 0-135-110-245-245-245z m0 469c-124 0-224-100-224-224 0-124 100-224 224-224 124 0 224 100 224 224 0 124-100 224-224 224z m128-235l-117 0 0-117c0-6-5-11-11-11-6 0-11 5-11 11l0 117-117 0c-6 0-11 5-11 11 0 6 5 11 11 11l117 0 0 117c0 6 5 11 11 11 6 0 11-5 11-11l0-117 117 0c6 0 11-5 11-11 0-6-5-11-11-11z"/>
    </symbol>

    <symbol id="icon-trash" viewBox="0 0 512 512">
      <path d="m501 64l-138 0 0-53c0-6-5-11-11-11l-192 0c-6 0-11 5-11 11l0 53-138 0c-6 0-11 5-11 11 0 6 5 10 11 10l54 0 20 417c1 6 5 10 11 10l320 0c6 0 10-4 11-10l20-417 54 0c6 0 11-4 11-10 0-6-5-11-11-11z m-330-43l170 0 0 43-170 0z m235 470l-300 0-20-406 340 0z m-246-342c-6 0-11 5-11 11l0 245c0 6 5 11 11 11 6 0 11-5 11-11l0-245c0-6-5-11-11-11z m96 0c-6 0-11 5-11 11l0 245c0 6 5 11 11 11 6 0 11-5 11-11l0-245c0-6-5-11-11-11z m85 0l0 246c0 6 5 10 11 10 6 0 11-4 11-10l0-246c0-6-5-10-11-10-6 0-11 4-11 10z"/>
    </symbol>

    <symbol id="icon-user" viewBox="0 0 512 512">
      <path d="m256 0c-141 0-256 115-256 256 0 68 26 132 74 180 49 49 113 76 182 76 69 0 134-27 182-76 48-48 74-112 74-180 0-141-115-256-256-256z m-157 430c22-12 54-23 86-35 11-4 22-8 32-12 4-1 7-5 7-10l0-53c0-4-3-9-7-10-1 0-25-10-25-54 0-6-4-11-10-11-1 0-3-4-3-10 0-6 2-10 2-11 6 0 11-5 11-11 0-2-1-5-3-11-2-11-11-42-3-51 3-3 9-3 15-2 5 1 11-2 12-8 3-14 28-24 59-24 31 0 56 10 59 24 5 20-4 47-8 60-2 6-3 9-3 12 0 6 4 11 10 11 1 1 3 5 3 11 0 6-2 10-2 10-6 0-11 5-11 11 0 44-24 54-25 54-4 1-7 5-7 10l0 53c0 5 3 9 7 10 12 5 23 9 34 13 33 12 63 23 84 34-43 39-98 61-157 61-59 0-114-22-157-61z m330-15c-22-14-55-26-92-39-9-3-18-7-28-10l0-39c11-7 30-24 32-63 8-5 14-16 14-29 0-13-5-23-12-28 6-16 15-46 9-71-8-29-48-40-80-40-29 0-64 8-76 31-11 0-20 3-26 9-16 18-7 52-1 71-7 5-12 15-12 28 0 13 6 24 14 29 2 39 21 56 32 63l0 39c-9 3-17 6-26 9-34 13-70 26-94 40-40-44-62-100-62-159 0-129 106-235 235-235 129 0 235 106 235 235 0 59-22 115-62 159z"/>
    </symbol>

    <symbol id="icon-view" viewBox="0 0 512 512">
      <path d="m510 249c-5-5-115-142-254-142-139 0-249 137-254 142-3 4-3 10 0 14 5 5 115 142 254 142 139 0 249-137 254-142 3-4 3-10 0-14z m-254 135c-112 0-208-101-231-128 23-27 119-128 231-128 112 0 208 101 231 128-23 27-119 128-231 128z m0-224c-53 0-96 43-96 96 0 53 43 96 96 96 53 0 96-43 96-96 0-53-43-96-96-96z m0 171c-41 0-75-34-75-75 0-41 34-75 75-75 41 0 75 34 75 75 0 41-34 75-75 75z m0-128c-6 0-11 4-11 10 0 6 5 11 11 11 18 0 32 14 32 32 0 18-14 32-32 32-18 0-32-14-32-32 0-6-5-11-11-11-6 0-10 5-10 11 0 29 24 53 53 53 29 0 53-24 53-53 0-29-24-53-53-53z"/>
    </symbol>

    <symbol id="icon-menu" viewBox="0 0 512 512">
      <path d="m496 272l-478 0c-6 0-11-5-11-11 0-6 5-10 11-10l478 0c6 0 10 4 10 10 0 6-4 11-10 11z m0 130l-478 0c-6 0-11-5-11-11 0-6 5-11 11-11l478 0c6 0 10 5 10 11 0 6-4 11-10 11z m0-260l-478 0c-6 0-11-5-11-10 0-6 5-11 11-11l478 0c6 0 10 5 10 11 0 5-4 10-10 10z"/>
    </symbol>

    <symbol id="icon-edit" viewBox="0 0 512 512">
      <path d="m493 65l-46-46c-20-20-54-20-75 0l-15 15 0 0-312 313c0 0 0 0 0 0 0 0 0 0 0 0l-6 5c-1 2-2 3-3 5l-32 138c-1 4 0 8 3 10 2 2 5 3 7 3 1 0 2 0 3 0l138-32c2-1 3-2 5-3l5-6c0 0 0 0 0 0 0 0 0 0 0 0l282-281c0 0 0 0 0 0 0-1 0-1 0-1l30-30c0 0 1 0 1 0 0 0 0 0 0 0l15-15c20-21 20-55 0-75z m-53 98l-91-91 15-15 91 91z m-282 282l-91-91 267-267 91 91z m-103-73l85 85-111 26z m423-247l-8 7-90-90 7-8c13-12 33-12 45 0l46 46c12 12 12 32 0 45z"/>
    </symbol>
    <symbol id="icon-close" viewBox="0 0 512 512">
      <path d="m286 256l80-80c4-4 6-9 6-15 0-5-2-11-6-15-9-8-22-8-30 0l-80 80-80-80c-8-8-21-8-30 0-8 9-8 22 0 30l80 80-80 80c-4 4-6 9-6 15 0 5 2 11 6 15 4 4 10 6 15 6 6 0 11-2 15-6l80-80 80 80c4 4 9 6 15 6 5 0 11-2 15-6 8-9 8-22 0-30z"/>
    </symbol>
    <symbol id="icon-alert" viewBox="0 0 512 512">
      <path d="m245 183l0 165c0 6 5 10 11 10 6 0 11-4 11-10l0-165c0-6-5-10-11-10-6 0-11 6-11 10z m32 235c0 12-9 21-21 21-12 0-21-9-21-21 0-12 9-21 21-21 12 0 21 9 21 21z m222 68l-234-469c-5-6-15-6-20 0l-234 469c-2 5-2 7 0 11 2 2 6 4 8 4l470 0c4 0 6-2 8-4 4-4 4-8 2-11z m-461-6l218-435 218 435z"/>
    </symbol>
     <symbol id="icon-more" viewBox="0 0 512 512">
      <path d="m297 50c0 23-18 41-41 41-23 0-41-18-41-41 0-23 18-41 41-41 23 0 41 18 41 41z m0 202c0 23-18 42-41 42-23 0-41-19-41-42 0-22 18-41 41-41 23 0 41 19 41 41z m0 203c0 23-18 41-41 41-23 0-41-18-41-41 0-23 18-41 41-41 23 0 41 18 41 41z"/>
    </symbol>
    <symbol id="icon-logout" viewBox="0 0 512 512">
      <path d="m347 63c-5-2-12 1-14 6-2 5 1 12 6 14 81 34 133 112 133 199 0 119-97 216-216 216-119 0-216-97-216-216 0-87 52-165 132-199 5-2 8-8 6-14-3-5-9-8-14-5-88 37-145 123-145 218 0 131 106 237 237 237 131 0 237-106 237-237 0-96-57-182-146-219z m-91 178c6 0 11-5 11-11l0-226c0-6-5-11-11-11-6 0-11 5-11 11l0 226c0 6 5 11 11 11z"/>
    </symbol>
    <symbol id="icon-settings" viewBox="0 0 512 512">
      <path d="m288 512l-64 0c-6 0-11-5-11-11l0-61c-17-4-35-9-49-16l-44 43c-4 4-11 4-15 0l-60-60c-2-2-3-5-3-8 0-3 1-5 3-7l43-44c-7-14-12-32-16-49l-61 0c-6 0-11-5-11-11l0-64c0-6 5-11 11-11l61 0c4-17 9-35 16-49l-43-44c-4-4-4-11 0-15l60-60c4-4 11-4 15 0l44 43c14-7 32-12 49-16l0-61c0-6 5-11 11-11l64 0c6 0 11 5 11 11l0 61c17 4 35 9 49 16l44-43c4-4 11-4 15 0l60 60c2 2 3 5 3 8 0 3-1 5-3 7l-43 44c7 14 12 32 16 49l61 0c6 0 11 5 11 11l0 64c0 6-5 11-11 11l-61 0c-4 17-9 35-16 49l43 44c4 4 4 11 0 15l-60 60c-4 4-11 4-15 0l-44-43c-14 7-32 12-49 16l0 61c0 6-5 11-11 11z m-53-21l42 0 0-59c0-5 4-9 9-10 11-3 43-11 59-20 4-3 9-2 13 1l41 42 46-46-42-41c-3-4-4-9-1-13 9-16 17-48 20-59 1-5 5-9 10-9l59 0 0-42-59 0c-5 0-9-4-10-8-3-12-11-44-20-60-3-4-2-9 1-13l42-41-46-46-41 42c-4 3-9 4-13 1-16-9-48-17-59-20-5-1-9-5-9-10l0-59-42 0 0 59c0 5-4 9-8 10-12 3-44 11-60 20-4 3-9 2-13-1l-41-42-46 46 42 41c3 4 4 9 1 13-9 16-17 48-20 60-1 4-5 8-10 8l-59 0 0 42 59 0c5 0 9 4 10 9 3 11 11 43 20 59 3 4 2 9-1 13l-42 41 46 46 41-42c4-3 9-4 13-1 16 9 48 17 60 20 4 1 8 5 8 10z m21-128c-59 0-107-48-107-107 0-59 48-107 107-107 59 0 107 48 107 107 0 59-48 107-107 107z m0-192c-47 0-85 38-85 85 0 47 38 85 85 85 47 0 85-38 85-85 0-47-38-85-85-85z"/>
    </symbol>
</svg>
